<?xml version="1.0" encoding="utf-8"?>
<!-- Generator: Adobe Illustrator 22.0.1, SVG Export Plug-In . SVG Version: 6.00 Build 0)  -->
<svg version="1.1" id="Layer_1" xmlns="http://www.w3.org/2000/svg" xmlns:xlink="http://www.w3.org/1999/xlink" x="0px" y="0px"
	 viewBox="0 0 30.1 30.1" style="enable-background:new 0 0 30.1 30.1;" xml:space="preserve">
<style type="text/css">
	.st0{fill:#FFFFFF;}
	.st1{fill:#057CFE;}
</style>
<path class="st0" d="M25.6,30.1h-21c-2.5,0-4.5-2-4.5-4.5v-21C0.1,2,2.1,0,4.6,0h21c2.5,0,4.5,2,4.5,4.5v21
	C30.1,28,28.1,30.1,25.6,30.1z"/>
<g>
	<path class="st1" d="M7.8,9.5c1.8,0,3.5,0,5.3,0c0,0.3,0,0.6,0,1c-1.4,0-2.8,0-4.3,0c0,4.2,0,8.4,0,12.7c4.2,0,8.4,0,12.6,0
		c0-4.2,0-8.4,0-12.6c-1.4,0-2.9,0-4.3,0c0-0.3,0-0.6,0-0.9c1.7,0,3.5,0,5.3,0c0,4.8,0,9.6,0,14.5c-4.9,0-9.7,0-14.6,0
		C7.8,19.2,7.8,14.3,7.8,9.5z"/>
	<path class="st1" d="M15.2,3.5c0.9,0.9,1.7,1.8,2.6,2.8c0.2,0.2,0.5,0.4,0.7,0.6c-0.3,0.3-0.5,0.5-0.7,0.8
		c-0.7-0.7-1.4-1.5-2.2-2.3c0,3.7,0,7.3,0,10.9c-0.3,0-0.6,0-1,0c0-3.6,0-7.2,0-10.8c-0.8,0.8-1.5,1.5-2.2,2.2
		C12.2,7.4,12,7.2,11.7,7c0.5-0.5,0.9-0.9,1.4-1.4c0.6-0.7,1.3-1.4,1.9-2.1C15.1,3.5,15.2,3.5,15.2,3.5z"/>
</g>
</svg>
